<?xml version="1.0" ?><!DOCTYPE svg  PUBLIC '-//W3C//DTD SVG 1.1//EN'  'http://www.w3.org/Graphics/SVG/1.1/DTD/svg11.dtd'><svg id="Layer_1" style="enable-background:new 0 0 64 64;" version="1.1" viewBox="0 0 64 64" xml:space="preserve" xmlns="http://www.w3.org/2000/svg" xmlns:xlink="http://www.w3.org/1999/xlink"><style type="text/css">
	.st0{fill:#134563;}
</style><g><g id="Icon-Gear" transform="translate(226.000000, 426.000000)"><path class="st0" d="M-194-382.7c-6.2,0-11.3-5.1-11.3-11.3s5.1-11.3,11.3-11.3s11.3,5.1,11.3,11.3     S-187.8-382.7-194-382.7L-194-382.7z M-194-402.9c-4.9,0-8.9,4-8.9,8.9s4,8.9,8.9,8.9s8.9-4,8.9-8.9S-189.1-402.9-194-402.9     L-194-402.9z" id="Fill-45"/><path class="st0" d="M-190.6-370.1h-6.8l-1.9-5.8c-1.3-0.4-2.5-0.9-3.7-1.5l-5.5,2.8l-4.8-4.8l2.8-5.5     c-0.6-1.2-1.2-2.4-1.5-3.7l-5.8-1.9v-6.8l5.8-1.9c0.4-1.3,0.9-2.5,1.5-3.7l-2.8-5.5l4.8-4.8l5.5,2.8c1.2-0.6,2.4-1.2,3.7-1.5     l1.9-5.8h6.8l1.9,5.8c1.3,0.4,2.5,0.9,3.7,1.5l5.5-2.8l4.8,4.8l-2.8,5.5c0.6,1.2,1.2,2.4,1.5,3.7l5.8,1.9v6.8l-5.8,1.9     c-0.4,1.3-0.9,2.5-1.5,3.7l2.8,5.5l-4.8,4.8l-5.5-2.8c-1.2,0.6-2.4,1.2-3.7,1.5L-190.6-370.1L-190.6-370.1z M-195.7-372.4h3.4     l1.8-5.4l0.6-0.2c1.5-0.4,2.9-1,4.3-1.8l0.6-0.3l5.1,2.6l2.4-2.4l-2.6-5.1l0.3-0.6c0.8-1.3,1.4-2.8,1.8-4.3l0.2-0.6l5.4-1.8v-3.4     l-5.4-1.8l-0.2-0.6c-0.4-1.5-1-3-1.8-4.3l-0.3-0.6l2.6-5.1l-2.4-2.4l-5.1,2.6l-0.6-0.3c-1.3-0.8-2.8-1.4-4.3-1.8l-0.6-0.2     l-1.8-5.4h-3.4l-1.8,5.4l-0.6,0.2c-1.5,0.4-2.9,1-4.3,1.8l-0.6,0.3l-5.1-2.6l-2.4,2.4l2.6,5.1l-0.3,0.6c-0.8,1.3-1.4,2.8-1.8,4.3     l-0.2,0.6l-5.4,1.8v3.4l5.4,1.8l0.2,0.6c0.4,1.5,1,3,1.8,4.3l0.3,0.6l-2.6,5.1l2.4,2.4l5.1-2.6l0.6,0.3c1.3,0.8,2.8,1.4,4.3,1.8     l0.6,0.2L-195.7-372.4L-195.7-372.4z" id="Fill-46"/></g></g></svg>